<?xml version="1.0" encoding="UTF-8" standalone="no"?>
<!DOCTYPE svg PUBLIC "-//W3C//DTD SVG 1.1//EN" "http://www.w3.org/Graphics/SVG/1.1/DTD/svg11.dtd">
<svg width="100%" height="100%" viewBox="0 0 3300 3300" version="1.1" xmlns="http://www.w3.org/2000/svg" xmlns:xlink="http://www.w3.org/1999/xlink" xml:space="preserve" xmlns:serif="http://www.serif.com/" style="fill-rule:evenodd;clip-rule:evenodd;stroke-linejoin:round;stroke-miterlimit:2;">
    <g transform="matrix(1.00103,0,0,1,3.29152,0)">
        <path d="M2918.69,0L1270.4,0L371.325,900L371.325,3300L2918.69,3300L2918.69,0Z" style="fill:none;"/>
        <clipPath id="_clip1">
            <path d="M2918.69,0L1270.4,0L371.325,900L371.325,3300L2918.69,3300L2918.69,0Z"/>
        </clipPath>
        <g clip-path="url(#_clip1)">
            <rect x="371.325" y="0" width="2547.37" height="3300" style="fill:white;"/>
            <path d="M2918.69,0L371.325,0L371.325,3300L2918.69,3300L2918.69,0ZM2843.77,75L2843.77,3225C2843.77,3225 859.681,3225 446.247,3225C446.247,3225 446.247,75 446.247,75L2843.77,75Z"/>
            <g transform="matrix(1.42743,0,0,1.4289,-1084.86,-1049.76)">
                <path d="M1650,734.664L1020.14,1364.52L1650,1364.52L1650,734.664ZM1597.51,861.381L1597.51,1312.03C1597.51,1312.03 1146.86,1312.03 1146.86,1312.03L1597.51,861.381Z"/>
            </g>
        </g>
    </g>
</svg>
